<?xml version="1.0" encoding="UTF-8" standalone="no" ?>
<!DOCTYPE svg PUBLIC "-//W3C//DTD SVG 1.1//EN" "http://www.w3.org/Graphics/SVG/1.1/DTD/svg11.dtd">
<svg xmlns="http://www.w3.org/2000/svg" xmlns:xlink="http://www.w3.org/1999/xlink" version="1.1" width="500" height="500" viewBox="0 0 500 500" xml:space="preserve">
<desc>Created with Fabric.js 5.3.0</desc>
<defs>
</defs>
<g transform="matrix(5.7489101431 0 0 5.7489101431 249.8537750804 250.2743561004)" id="Tv9RPvGg-9sTPKU8Hfza_"  >
<path style="stroke: rgb(152,200,43); stroke-width: 0; stroke-dasharray: none; stroke-linecap: butt; stroke-dashoffset: 0; stroke-linejoin: miter; stroke-miterlimit: 4; fill: rgb(53,237,53); fill-rule: nonzero; opacity: 1;" vector-effect="non-scaling-stroke"  transform=" translate(0, 0)" d="M -43.85965 -43.85965 L 43.85965 -43.85965 L 43.85965 43.85965 L -43.85965 43.85965 z" stroke-linecap="round" />
</g>
<g transform="matrix(0.9832583234 0 0 0.9832583234 249.3787508508 250.2743561004)" id="G66MgJyKtihnIAafOQ6T8"  >
<path style="stroke: rgb(1,44,1); stroke-width: 0; stroke-dasharray: none; stroke-linecap: butt; stroke-dashoffset: 0; stroke-linejoin: miter; stroke-miterlimit: 4; fill: rgb(0,0,0); fill-rule: nonzero; opacity: 1;" vector-effect="non-scaling-stroke"  transform=" translate(0, 0)" d="M 0 -55.06608 C 30.39648 -55.06608 55.06608 -30.39648 55.06608 0 C 55.06608 30.39648 30.39648 55.06608 0 55.06608 C -30.39648 55.06608 -55.06608 30.39648 -55.06608 0 C -55.06608 -30.39648 -30.39648 -55.06608 0 -55.06608 z" stroke-linecap="round" />
</g>
<g transform="matrix(0.7873860367 -1.3637926207 3.5364720721 2.0417831028 250 250.2743561004)" id="CAU4iKDW29XXn7cnCUvMe"  >
<path style="stroke: rgb(255,255,255); stroke-width: 10; stroke-dasharray: none; stroke-linecap: butt; stroke-dashoffset: 0; stroke-linejoin: miter; stroke-miterlimit: 4; fill: none; fill-rule: nonzero; opacity: 1;" vector-effect="non-scaling-stroke"  transform=" translate(0, 0)" d="M 0 -55.06608 C 30.39648 -55.06608 55.06608 -30.39648 55.06608 0 C 55.06608 30.39648 30.39648 55.06608 0 55.06608 C -30.39648 55.06608 -55.06608 30.39648 -55.06608 0 C -55.06608 -30.39648 -30.39648 -55.06608 0 -55.06608 z" stroke-linecap="round" />
</g>
<g transform="matrix(0.7873860367 1.3637926207 -3.5364720721 2.0417831028 250.0000015243 250.0000024016)" id="ThUY3NBfgxgy4C31zoJTC"  >
<path style="stroke: rgb(255,255,255); stroke-width: 10; stroke-dasharray: none; stroke-linecap: butt; stroke-dashoffset: 0; stroke-linejoin: miter; stroke-miterlimit: 4; fill: none; fill-rule: nonzero; opacity: 1;" vector-effect="non-scaling-stroke"  transform=" translate(0, 0)" d="M 0 -55.06608 C 30.39648 -55.06608 55.06608 -30.39648 55.06608 0 C 55.06608 30.39648 30.39648 55.06608 0 55.06608 C -30.39648 55.06608 -55.06608 30.39648 -55.06608 0 C -55.06608 -30.39648 -30.39648 -55.06608 0 -55.06608 z" stroke-linecap="round" />
</g>
<g transform="matrix(0.6007304278 0 0 0.6007304278 68.3831589612 294.5113678509)" id="oeyj9bMo3lGGRm1v8JeCo"  >
<path style="stroke: rgb(213,156,39); stroke-width: 0; stroke-dasharray: none; stroke-linecap: butt; stroke-dashoffset: 0; stroke-linejoin: miter; stroke-miterlimit: 4; fill: rgb(0,0,0); fill-rule: nonzero; opacity: 1;" vector-effect="non-scaling-stroke"  transform=" translate(0, 0)" d="M 0 -55.06608 C 30.39648 -55.06608 55.06608 -30.39648 55.06608 0 C 55.06608 30.39648 30.39648 55.06608 0 55.06608 C -30.39648 55.06608 -55.06608 30.39648 -55.06608 0 C -55.06608 -30.39648 -30.39648 -55.06608 0 -55.06608 z" stroke-linecap="round" />
</g>
<g transform="matrix(1.5844864087 0 0 4.0987660743 249.8537750804 250)" id="2Znhd3o70c75nRrkM0411"  >
<path style="stroke: rgb(255,255,255); stroke-width: 10; stroke-dasharray: none; stroke-linecap: butt; stroke-dashoffset: 0; stroke-linejoin: miter; stroke-miterlimit: 4; fill: none; fill-rule: nonzero; opacity: 1;" vector-effect="non-scaling-stroke"  transform=" translate(0, 0)" d="M 0 -55.06608 C 30.39648 -55.06608 55.06608 -30.39648 55.06608 0 C 55.06608 30.39648 30.39648 55.06608 0 55.06608 C -30.39648 55.06608 -55.06608 30.39648 -55.06608 0 C -55.06608 -30.39648 -30.39648 -55.06608 0 -55.06608 z" stroke-linecap="round" />
</g>
<g transform="matrix(0.6007304278 0 0 0.6007304278 378.587089232 384.7277013504)" id="tDw7kvRmyxZ_KJi9nsJho"  >
<path style="stroke: rgb(53,237,53); stroke-width: 0; stroke-dasharray: none; stroke-linecap: butt; stroke-dashoffset: 0; stroke-linejoin: miter; stroke-miterlimit: 4; fill: rgb(0,0,0); fill-rule: nonzero; opacity: 1;" vector-effect="non-scaling-stroke"  transform=" translate(0, 0)" d="M 0 -55.06608 C 30.39648 -55.06608 55.06608 -30.39648 55.06608 0 C 55.06608 30.39648 30.39648 55.06608 0 55.06608 C -30.39648 55.06608 -55.06608 30.39648 -55.06608 0 C -55.06608 -30.39648 -30.39648 -55.06608 0 -55.06608 z" stroke-linecap="round" />
</g>
<g transform="matrix(0.6007304278 0 0 0.6007304278 301.6465307934 70.7923240539)" id="D6CCDyXID9SN8khPaihWZ"  >
<path style="stroke: rgb(213,156,39); stroke-width: 0; stroke-dasharray: none; stroke-linecap: butt; stroke-dashoffset: 0; stroke-linejoin: miter; stroke-miterlimit: 4; fill: rgb(0,0,0); fill-rule: nonzero; opacity: 1;" vector-effect="non-scaling-stroke"  transform=" translate(0, 0)" d="M 0 -55.06608 C 30.39648 -55.06608 55.06608 -30.39648 55.06608 0 C 55.06608 30.39648 30.39648 55.06608 0 55.06608 C -30.39648 55.06608 -55.06608 30.39648 -55.06608 0 C -55.06608 -30.39648 -30.39648 -55.06608 0 -55.06608 z" stroke-linecap="round" />
</g>
</svg>